<?xml version="1.0" encoding="utf-8"?>
<!-- Generator: Adobe Illustrator 26.5.0, SVG Export Plug-In . SVG Version: 6.00 Build 0)  -->
<svg version="1.1" id="Layer_1" xmlns="http://www.w3.org/2000/svg" xmlns:xlink="http://www.w3.org/1999/xlink" x="0px" y="0px"
	 viewBox="0 0 1109.4 376.5" style="enable-background:new 0 0 1109.4 376.5;" xml:space="preserve">
<style type="text/css">
	.st0{fill:#00C896;}
	.st1{fill:#FFFFFF;}
	.st2{fill:#003C3C;}
</style>
<g>
	<g>
		<path class="st0" d="M376.5,188.3c0,104-84.3,188.3-188.3,188.3S0,292.2,0,188.3S84.3,0,188.3,0S376.5,84.3,376.5,188.3"/>
		<path class="st1" d="M282.3,114.1V90.8h-24.5c-19.6-14-43.6-22.2-69.5-22.2s-49.9,8.2-69.5,22.2H94.3v23.3
			c-16.1,20.4-25.7,46.1-25.7,74.1c0,40.8,20.5,76.9,51.7,98.5c0,0,0,0,0,0c2,1.4,4,2.6,6.1,3.7l61.9,32.8l61.9-32.8
			c2.3-1.2,4.4-2.5,6.5-4c0,0,0,0,0,0c31-21.6,51.3-57.6,51.3-98.3C308,160.3,298.4,134.5,282.3,114.1"/>
		<path class="st2" d="M277.3,237.5V96.1h-178v141.4c0,20.5,11.3,39.4,29.5,49l59.5,31.5l59.5-31.5
			C265.9,276.8,277.3,258,277.3,237.5 M220.3,283.3c0-3.1,2.5-5.7,5.7-5.7c3.1,0,5.7,2.5,5.7,5.7c0,3.1-2.5,5.7-5.7,5.7
			C222.9,289,220.3,286.5,220.3,283.3 M182.3,301.9c0-3.1,2.5-5.7,5.7-5.7c3.1,0,5.7,2.5,5.7,5.7s-2.5,5.7-5.7,5.7
			C184.8,307.6,182.3,305,182.3,301.9 M164.4,276.2l23.9-12.9l23.8,12.9l-23.9,12.6L164.4,276.2z M144.4,283.3
			c0-3.1,2.5-5.7,5.7-5.7c3.1,0,5.7,2.5,5.7,5.7c0,3.1-2.6,5.7-5.7,5.7C147,288.9,144.4,286.4,144.4,283.3 M125,229.1l41.2,22.3
			l-24.1,13l-1.3-0.7c-4.8-2.5-8.8-6.3-11.5-10.9c-2.8-4.6-4.3-9.9-4.3-15.3L125,229.1L125,229.1z M106.4,225c0-3.1,2.5-5.7,5.7-5.7
			c3.1,0,5.7,2.5,5.7,5.7c0,3.1-2.6,5.7-5.7,5.7C108.9,230.7,106.4,228.1,106.4,225 M106.4,186.7c0-3.1,2.5-5.7,5.7-5.7
			c3.1,0,5.7,2.5,5.7,5.7c0,3.1-2.6,5.7-5.7,5.7C108.9,192.4,106.4,189.8,106.4,186.7 M106.4,148.4c0-3.1,2.5-5.7,5.7-5.7
			c3.1,0,5.7,2.5,5.7,5.7c0,3.1-2.6,5.7-5.7,5.7C108.9,154,106.4,151.5,106.4,148.4 M117.9,109.1c0,3.1-2.5,5.7-5.7,5.7
			c-3.1,0-5.7-2.5-5.7-5.7c0-3.1,2.6-5.7,5.7-5.7C115.4,103.4,117.9,106,117.9,109.1 M124.1,259.2c0,3.1-2.5,5.7-5.7,5.7
			s-5.7-2.5-5.7-5.7c0-3.1,2.5-5.7,5.7-5.7C121.6,253.5,124.1,256.1,124.1,259.2 M168.5,109.1c0,3.1-2.5,5.7-5.7,5.7
			c-3.1,0-5.7-2.5-5.7-5.7c0-3.1,2.5-5.7,5.7-5.7C165.9,103.4,168.5,106,168.5,109.1 M219,109.1c0,3.1-2.5,5.7-5.7,5.7
			c-3.1,0-5.7-2.5-5.7-5.7c0-3.1,2.5-5.7,5.7-5.7C216.5,103.4,219,106,219,109.1 M251.6,205.3l-63.3,34.1L125,205.2v-83.4h126.6
			V205.3z M251.6,237.5c0,5.4-1.5,10.7-4.2,15.3c-2.8,4.6-6.8,8.4-11.5,10.9l-1.3,0.7l-24.1-13l41.1-22.2L251.6,237.5L251.6,237.5z
			 M258.1,253.7c3.1,0,5.7,2.5,5.7,5.7c0,3.1-2.5,5.7-5.7,5.7c-3.1,0-5.7-2.5-5.7-5.7C252.5,256.2,255,253.7,258.1,253.7
			 M269.6,109.1c0,3.1-2.5,5.7-5.7,5.7c-3.1,0-5.7-2.5-5.7-5.7c0-3.1,2.5-5.7,5.7-5.7S269.6,106,269.6,109.1 M269.6,148.5
			c0,3.1-2.5,5.7-5.7,5.7c-3.1,0-5.7-2.5-5.7-5.7c0-3.1,2.5-5.7,5.7-5.7S269.6,145.4,269.6,148.5 M269.6,186.8
			c0,3.1-2.5,5.7-5.7,5.7c-3.1,0-5.7-2.5-5.7-5.7c0-3.1,2.5-5.7,5.7-5.7S269.6,183.7,269.6,186.8 M269.6,225.1
			c0,3.1-2.5,5.7-5.7,5.7c-3.1,0-5.7-2.5-5.7-5.7c0-3.1,2.5-5.7,5.7-5.7S269.6,222,269.6,225.1 M188.3,218.6l2.4,1.7h15.8l2.9-1.5
			v-19.9l-1.6-1.6v20.2l-3.9-1.9c-2.4-1.2-4.7-1.8-6.8-1.8c-2.1,0-4.4,0.6-6.8,1.8l-2,1l-2-1c-2.4-1.2-4.7-1.8-6.8-1.8
			c-2.1,0-4.4,0.6-6.8,1.8l-3.9,1.9v-20.4l-1.5,1.8v20l2.9,1.5h15.8L188.3,218.6z M202,183.3l12.1,9.2c0.8-6.5,1.6-12.9,2.3-18.9
			l-17.3-13.1c0.9,7.3,1.8,15,2.8,22.7L202,183.3z M219.2,160.8c-1.5,12.7-3,25.4-4.6,38c8,3.9,17.1,3.9,25.1,0
			c-1.6-12.7-3.2-25.3-4.6-38C229.8,160,224.5,160,219.2,160.8 M225.9,172.1c0-0.9,0.3-1.8,0.8-2.6c0.2-0.3,0.3-0.4,0.5-0.7
			c0.2,0.3,0.3,0.4,0.5,0.7c0.5,0.8,0.8,1.6,0.8,2.6v6.2c-0.8,0-1.6,0-2.5,0L225.9,172.1L225.9,172.1z M235.1,159.5
			c0.8-1.1,1.5-2.2,2.4-3.3c-6.8-1.8-13.8-1.8-20.5,0c0.8,1.1,1.6,2.2,2.4,3.3C224.5,158.6,229.8,158.6,235.1,159.5 M227.8,153.5
			c3.2,0,6.5,0.5,9.6,1.5v-6.2c-1.2-0.5-2.3-0.8-3.5-1.1c-0.4,0.8-0.8,1.6-1.2,2.4c-0.8-0.1-1.6-0.3-2.4-0.4
			c-0.4-0.9-0.8-1.9-1.2-2.8c-1.2-0.1-2.5-0.1-3.7,0c-0.4,0.9-0.8,1.9-1.2,2.8c-0.8,0.1-1.6,0.2-2.4,0.4c-0.4-0.8-0.8-1.6-1.2-2.4
			c-1.2,0.3-2.4,0.7-3.5,1.1v6.2C220.4,153.9,224.1,153.4,227.8,153.5 M217.3,167.3l-2.2-1.6l-0.5,1.4l-2-1.5l-0.8-2.4l-2-1.5
			l-0.8,1.2l-2-1.5l-0.8-2.4l-2-1.5l-0.8,1.2l-2-1.5l-0.8-2.4l-2.2-1.6c0,0,0.5,4.2,0.7,5.8l17.7,13.3
			C216.8,171.2,217.3,167.3,217.3,167.3 M196.2,143.9c0.8-1.1,1.5-2.2,2.4-3.3c-6.8-1.8-13.8-1.8-20.5,0c0.8,1.1,1.6,2.2,2.4,3.3
			C185.6,143.1,190.9,143.1,196.2,143.9 M187.6,137.9c3.6-0.1,7.4,0.4,10.9,1.5v-6.2c-1.2-0.5-2.3-0.8-3.6-1.1
			c-0.4,0.8-0.8,1.6-1.2,2.4c-0.8-0.1-1.6-0.3-2.4-0.4c-0.4-0.9-0.8-1.9-1.2-2.8c-1.2-0.1-2.4-0.1-3.7,0c-0.4,0.9-0.8,1.9-1.2,2.8
			c-0.8,0.1-1.6,0.2-2.4,0.4c-0.4-0.8-0.8-1.6-1.2-2.4c-1.2,0.3-2.4,0.7-3.6,1.1v6.2C181.1,138.5,184.4,138,187.6,137.9 M178.2,153
			l-2.2,1.6l-0.8,2.4l-2,1.5l-0.8-1.2l-2,1.5l-0.8,2.4l-2,1.5l-0.8-1.2l-2,1.5l-0.8,2.4l-2,1.5l-0.6-1.4l-2.2,1.6
			c0,0,0.5,3.9,0.6,4.8l17.7-13.3C177.7,157.2,178.2,153,178.2,153 M157.3,159.5c0.8-1.1,1.5-2.2,2.4-3.3c-6.8-1.8-13.8-1.8-20.5,0
			c0.8,1.1,1.6,2.2,2.4,3.3C146.7,158.6,152,158.6,157.3,159.5 M148.8,153.5c3.6-0.1,7.4,0.4,10.9,1.5v-6.2
			c-1.2-0.5-2.3-0.8-3.6-1.1c-0.4,0.8-0.8,1.6-1.2,2.4c-0.8-0.1-1.6-0.3-2.4-0.4c-0.4-0.9-0.8-1.9-1.2-2.8c-1.2-0.1-2.4-0.1-3.7,0
			c-0.4,0.9-0.8,1.9-1.2,2.8c-0.8,0.1-1.6,0.2-2.4,0.4c-0.4-0.8-0.8-1.6-1.2-2.4c-1.2,0.3-2.4,0.7-3.6,1.1v6.2
			C142.2,154,145.5,153.5,148.8,153.5 M141.5,160.8c-1.5,12.7-3,25.4-4.6,38c8,3.9,17.1,3.9,25.1,0c-1.6-12.7-3.1-25.3-4.6-38
			C152,160,146.7,160,141.5,160.8 M148.1,172.1c0-0.9,0.3-1.8,0.8-2.6c0.2-0.3,0.3-0.4,0.4-0.7c0.2,0.3,0.3,0.4,0.4,0.7
			c0.5,0.8,0.8,1.6,0.8,2.6v6.2c-0.8,0-1.6,0-2.5,0L148.1,172.1L148.1,172.1z M162.3,192.4l12.1-9.2l0-0.2c1-7.7,1.9-15.4,2.8-22.7
			L160,173.5C160.7,179.6,161.5,186,162.3,192.4 M186.8,214.4l0.6,0.3v-22c-2.9-1.4-5.4-2.1-8-2.1c-2.8,0-5.5,0.8-8.6,2.4l-0.7,0.4
			v21.9l1.9-1c2.6-1.3,5.1-1.9,7.4-1.9C181.8,212.5,184.2,213.1,186.8,214.4 M197,190.7c-2.6,0-5.1,0.7-8,2.1v22l0.6-0.3
			c2.6-1.3,5.1-1.9,7.4-1.9s4.8,0.6,7.4,1.9l1.9,1v-21.9l-0.7-0.4C202.5,191.4,199.7,190.7,197,190.7 M188.2,171.5
			c1.8,1.1,3.3,2.6,4.4,4.5c1,1.8,1.6,3.9,1.6,6v1.9c0.7,0.5,1,0.7,1.7,1.3c1.7-0.5,3.3-1.1,4.9-1.9c-1.6-12.7-3.2-25.4-4.6-38
			c-5.3-0.8-10.6-0.8-15.8,0c-1.5,12.7-3,25.4-4.6,38c1.6,0.8,3.2,1.4,4.9,1.9c0.7-0.5,1-0.7,1.7-1.3V182
			C182.3,177.7,184.6,173.7,188.2,171.5 M189.5,162.8c-0.8,0-1.6,0-2.5,0v-6.2c0-0.9,0.3-1.8,0.8-2.6c0.2-0.3,0.3-0.4,0.4-0.7
			c0.2,0.3,0.3,0.4,0.4,0.7c0.5,0.7,0.8,1.6,0.8,2.6L189.5,162.8L189.5,162.8z"/>
		<path class="st2" d="M342.1,218.7c-0.1,0.6-0.5,1.1-1,1.5s-1.1,0.4-1.7,0.3c-0.6-0.1-1.1-0.4-1.5-1c-0.4-0.5-0.5-1.1-0.3-1.7
			c0.1-0.6,0.5-1.1,1-1.5c0.5-0.3,1.1-0.4,1.7-0.3c0.6,0.1,1.1,0.4,1.5,0.9C342.1,217.4,342.2,218,342.1,218.7 M322.4,249.3l1.7-4.1
			c0.4-1,1-1.7,1.9-2c0.8-0.3,1.6-0.3,2.5,0.1c0.9,0.4,1.5,1,1.8,1.8c0.3,0.8,0.2,1.7-0.2,2.7l-1.7,4L322.4,249.3z M342.8,248.9
			l1.8-4.1l-11.5,3.4c0.4-1,0.5-2,0.5-3c-0.1-1.2-0.4-2.2-1.1-3.1s-1.5-1.6-2.7-2.1c-1.1-0.5-2.2-0.6-3.3-0.5s-2.1,0.6-3,1.4
			c-0.9,0.7-1.6,1.7-2.2,3l-3.2,7.5l20.1,8.5l1.4-3.3L331,253l0.4-0.9L342.8,248.9z M326.5,280.7c-0.9,1.4-2,2.4-3.4,3
			c-1.4,0.7-2.8,1-4.3,0.9s-2.9-0.6-4.3-1.5l-11.2-7.5l2-3l11.2,7.5c0.9,0.6,1.8,0.9,2.7,1s1.7-0.1,2.5-0.5c0.8-0.4,1.4-1,2-1.8
			c0.5-0.8,0.8-1.6,0.9-2.5c0.1-0.9-0.1-1.7-0.5-2.5c-0.4-0.8-1-1.5-1.9-2.1l-11.2-7.5l2-3l11.2,7.5c1.4,0.9,2.4,2,3,3.4
			c0.6,1.3,0.9,2.7,0.8,4.2C327.9,277.9,327.4,279.3,326.5,280.7 M311.7,299.8l-15.2-15.6l-1.8,1.7l3.5,15.5l-15.4-4l-1.8,1.7
			l15.2,15.6l2.6-2.5l-9.7-10l11,2.9l1.8-1.7l-2.5-11.1l9.7,10L311.7,299.8z M281,325.9l-12.4-17.9l3-2l12.4,17.9L281,325.9z
			 M260.9,337.8c-1.5,0.7-3,1-4.5,0.9c-1.5-0.1-2.9-0.6-4.1-1.4c-1.2-0.8-2.2-2-3-3.5l-5.9-12.2l3.2-1.6l5.9,12.1
			c0.5,1,1.1,1.7,1.8,2.2c0.7,0.5,1.5,0.8,2.4,0.8s1.7-0.1,2.6-0.6c0.9-0.4,1.6-1,2-1.7c0.5-0.7,0.8-1.5,0.8-2.4
			c0-0.9-0.1-1.8-0.6-2.7l-5.9-12.2l3.2-1.6l5.9,12.2c0.7,1.5,1,3,0.9,4.4c-0.1,1.5-0.6,2.8-1.4,4.1
			C263.5,336.1,262.4,337.1,260.9,337.8 M231.3,344.3c-0.9,0.9-2.1,1.5-3.5,1.9c-1,0.3-2.1,0.3-3,0.2s-1.9-0.5-2.7-1
			c-0.8-0.5-1.5-1.2-2.1-2c-0.6-0.8-1-1.8-1.3-2.9c-0.4-1.5-0.4-2.9-0.1-4.2s1-2.4,1.9-3.3c0.9-0.9,2.1-1.5,3.5-1.9
			c1.1-0.3,2.1-0.3,3-0.2s1.9,0.5,2.7,1c0.8,0.5,1.5,1.2,2.1,2c0.6,0.8,1,1.8,1.3,2.9c0.4,1.5,0.4,2.9,0.1,4.2c0,0,0,0.1,0,0.2
			l-4.7-2.8l-1.7,2.8l4.8,2.9C231.5,344.1,231.4,344.2,231.3,344.3 M240.3,345.4l-4.1-2.5c0.3-0.8,0.6-1.7,0.7-2.6
			c0.2-1.5,0.1-2.9-0.2-4.5s-1-2.8-1.9-4c-0.9-1.2-2-2.1-3.2-2.9c-1.2-0.8-2.6-1.2-4-1.5c-1.4-0.2-2.9-0.2-4.4,0.2s-2.8,1-4,1.9
			s-2.1,1.9-2.8,3.2c-0.7,1.2-1.2,2.6-1.4,4c-0.2,1.5-0.1,2.9,0.2,4.4c0.4,1.5,1,2.8,1.9,4c0.9,1.2,2,2.1,3.2,2.9
			c1.2,0.8,2.6,1.2,4,1.5s2.9,0.2,4.4-0.2c1.5-0.4,2.8-1,4-1.9c0.7-0.5,1.3-1.2,1.9-1.8l4.1,2.5L240.3,345.4z M204.9,353.5l-0.2-3.3
			l-11.1,0.6l-0.3-6.3l10-0.5l-0.2-3.1l-10,0.5l-0.3-5.8l10.9-0.6l-0.2-3.3l-14.5,0.8l1.1,21.8L204.9,353.5z M168.5,353.3
			c-1.7-0.2-3.1-0.7-4.2-1.5c-1.1-0.8-2.1-1.8-2.9-3.1l2.7-2.1c0.5,0.9,1.1,1.7,1.9,2.3s1.8,1,3.1,1.1c1.2,0.1,2.2,0,2.9-0.4
			c0.8-0.4,1.2-1,1.3-1.9c0.1-0.7,0-1.3-0.3-1.8c-0.3-0.5-0.8-0.9-1.3-1.3s-1.2-0.7-1.9-1s-1.4-0.7-2.1-1.1
			c-0.7-0.4-1.3-0.8-1.9-1.4c-0.6-0.5-1-1.2-1.3-1.9c-0.3-0.8-0.4-1.7-0.2-2.8c0.1-1.3,0.6-2.3,1.3-3.2s1.7-1.4,2.8-1.8
			c1.1-0.3,2.4-0.4,3.7-0.3c1.4,0.2,2.7,0.6,3.7,1.3s1.9,1.5,2.5,2.5l-2.7,2.1c-0.5-0.8-1.1-1.4-1.7-1.8c-0.6-0.4-1.4-0.7-2.2-0.8
			c-1.1-0.1-1.9,0-2.6,0.3s-1,0.9-1.1,1.7c-0.1,0.7,0,1.2,0.4,1.7c0.3,0.5,0.8,0.8,1.4,1.2c0.6,0.3,1.2,0.7,1.9,1
			c0.7,0.3,1.4,0.7,2.1,1.1c0.7,0.4,1.3,0.9,1.9,1.4c0.6,0.6,1,1.2,1.2,2c0.3,0.8,0.4,1.8,0.2,2.9c-0.2,1.9-1.1,3.4-2.6,4.4
			C172.7,353.2,170.8,353.6,168.5,353.3 M138.2,323.7l-13,9.2l-2.1-15.7l-2.3-1l-8.7,20l3.3,1.4l5.6-12.8l1.6,11.3l2.3,1l9.3-6.5
			l-5.6,12.8l3.3,1.4l8.7-20L138.2,323.7z M110,313.4l1.9-2.7l-11.9-8.3l-12.5,17.8l12,8.4l1.9-2.7l-9.1-6.3l3.6-5.2l8.2,5.8
			l1.8-2.6l-8.2-5.8l3.3-4.8L110,313.4z M70.7,305.8c-1.1-1.1-1.9-2.4-2.4-3.7c-0.5-1.4-0.8-2.8-0.7-4.2c0-1.4,0.3-2.8,0.9-4.1
			c0.6-1.3,1.4-2.5,2.6-3.6c1.1-1.1,2.3-1.9,3.7-2.5c1.4-0.6,2.7-0.9,4.2-0.8c1.4,0,2.8,0.3,4.2,0.8s2.6,1.4,3.7,2.5
			c1.2,1.3,2.1,2.5,2.6,3.9c0.5,1.3,0.7,2.7,0.7,4.1l-3.4,0c0.1-1-0.1-1.9-0.5-2.8c-0.4-0.9-1-1.8-1.8-2.7c-0.8-0.8-1.6-1.3-2.5-1.7
			s-1.8-0.5-2.8-0.5c-0.9,0-1.9,0.2-2.8,0.6c-0.9,0.4-1.8,1-2.6,1.8c-0.8,0.8-1.4,1.7-1.9,2.6c-0.4,0.9-0.7,1.9-0.7,2.8
			c0,0.9,0.1,1.9,0.5,2.8s0.9,1.7,1.7,2.5c0.9,1,1.9,1.6,2.8,2c0.9,0.4,1.9,0.5,2.8,0.5l0,3.4c-1.4,0-2.8-0.3-4.2-0.8
			C73.2,308,72,307,70.7,305.8 M49.5,279.6c-0.9-1.4-1.4-2.8-1.5-4.3s0.2-2.9,0.9-4.3c0.7-1.4,1.7-2.5,3.1-3.4l11.3-7.4l2,3
			l-11.3,7.4c-0.9,0.6-1.5,1.3-1.9,2.1c-0.4,0.8-0.6,1.6-0.5,2.5c0.1,0.9,0.4,1.7,0.9,2.5c0.5,0.8,1.2,1.4,1.9,1.8
			c0.8,0.4,1.6,0.5,2.5,0.5c0.9-0.1,1.8-0.4,2.6-1l11.3-7.4l2,3l-11.3,7.4c-1.4,0.9-2.8,1.4-4.3,1.5c-1.5,0.1-2.9-0.2-4.2-0.9
			C51.5,282,50.4,281,49.5,279.6 M54.8,242.7l-1.4-3.3l-20,8.6l5.5,12.7l3-1.3l-4.1-9.4L54.8,242.7z M34.5,218.7
			c-0.1-0.6,0-1.2,0.3-1.7c0.4-0.5,0.8-0.8,1.5-0.9c0.7-0.1,1.2,0,1.7,0.3c0.5,0.3,0.8,0.8,1,1.5c0.1,0.6,0,1.2-0.3,1.7
			s-0.8,0.8-1.5,1c-0.6,0.1-1.2,0-1.7-0.3C34.9,219.9,34.6,219.4,34.5,218.7 M350.2,185.6c-0.6,0.6-1.4,1-2.3,1
			c-1,0-1.8-0.2-2.4-0.8s-0.9-1.4-1-2.5l-0.1-4.4l6.5-0.2l0.1,4.4C351.1,184.2,350.8,185,350.2,185.6 M353.9,175l-21.8,0.8l0.1,3.6
			l9.2-0.3l0,0.9l-9,7.8l0.2,4.5l9-8c0.1,1.1,0.4,2.1,0.9,2.9c0.5,1,1.3,1.8,2.3,2.3c1,0.5,2.1,0.8,3.3,0.7c1.2,0,2.3-0.4,3.2-1
			c0.9-0.6,1.6-1.4,2.1-2.5c0.5-1.1,0.8-2.3,0.7-3.6L353.9,175z M331.7,153.8l6.1-1.3l2.1,9.8l3.1-0.7l-2.1-9.8l5.7-1.2l2.3,10.7
			l3.2-0.7l-3.1-14.2l-21.3,4.6l3.1,14.3l3.2-0.7L331.7,153.8z M342,134.4l3-1.2l-6.8-16.4l-3,1.2l2.7,6.6l-17.1,7.1l1.4,3.3
			l17.1-7.1L342,134.4z M316.4,103.3l5.4,8.5l2.7-1.7l-5.4-8.5l4.9-3.1l5.8,9.2l2.8-1.7l-7.7-12.3l-18.4,11.6l7.8,12.4l2.8-1.7
			l-5.9-9.4L316.4,103.3z M314,79.7l-9.7,1.4l2.1-9.7l-2.9-3.1l-2.6,12.8l-13.6,1.8l2.7,3l10.7-1.4l-2.5,10.3l2.8,3.1l3.1-13.3
			l12.6-1.8L314,79.7z M285.4,68.9l1.9-2.5l-8-6l3.5-4.7l8.8,6.5l1.9-2.6L281.7,51l-13,17.5l11.8,8.7l2-2.6l-8.9-6.6l3.7-5
			L285.4,68.9z M256.3,40.3l1.2-3l-13-5.3l-8.2,20.2l3.3,1.3l3.5-8.7l9.2,3.7l1.2-3l-9.2-3.7l2.2-5.5L256.3,40.3z M216.3,43.7
			c1.5,0.3,2.8,0.2,4-0.2c1.2-0.4,2.2-1.2,3.1-2.2s1.4-2.3,1.7-3.8c0.2-1.1,0.2-2.2,0.1-3.2c-0.2-1-0.5-1.9-1-2.7
			c-0.5-0.8-1.2-1.5-2-2c-0.8-0.5-1.8-0.9-2.8-1.1c-1.4-0.3-2.8-0.2-4,0.2s-2.2,1.2-3.1,2.2c-0.8,1-1.4,2.3-1.7,3.8
			c-0.2,1.1-0.2,2.2-0.1,3.2c0.2,1,0.5,1.9,1,2.7c0.5,0.8,1.2,1.5,2,2C214.3,43.1,215.2,43.5,216.3,43.7 M215.7,47.1
			c-1.5-0.3-2.9-0.9-4.1-1.7c-1.2-0.8-2.2-1.8-3-3.1c-0.8-1.2-1.4-2.5-1.6-4c-0.3-1.4-0.3-2.9,0-4.5c0.3-1.5,0.9-2.9,1.7-4.1
			s1.8-2.2,3-3.1c1.2-0.8,2.5-1.4,3.9-1.7c1.4-0.3,2.9-0.3,4.4,0s2.9,0.9,4.1,1.7c1.2,0.8,2.2,1.8,3,3c0.8,1.2,1.4,2.5,1.6,4
			s0.3,2.9,0,4.5c-0.3,1.5-0.9,2.9-1.7,4.1c-0.8,1.2-1.8,2.2-3,3.1s-2.5,1.4-3.9,1.7C218.6,47.3,217.2,47.4,215.7,47.1 M186.4,22
			l-4.1,0.3l-5,9.3l-6.3-8.5l-4.1,0.3l8.8,11.7l0.7,9.5l3.6-0.2l-0.7-9.6L186.4,22z M159,28l-0.8-3.2L140.9,29l0.8,3.2l6.9-1.7
			l4.3,18l3.5-0.8l-4.3-18L159,28z M134.7,54.4l-7.9-20.3l3.3-1.3l7.9,20.3L134.7,54.4z M117.7,63c-1.5,0.8-2.9,1.3-4.3,1.3
			s-2.7-0.2-4.2-0.8l0.9-3.3c0.9,0.5,1.9,0.7,2.9,0.7c1,0,2-0.3,3.1-0.9c1.1-0.6,1.8-1.3,2.1-2.1c0.4-0.8,0.4-1.6-0.1-2.3
			c-0.4-0.6-0.8-1.1-1.4-1.3c-0.6-0.2-1.2-0.3-1.9-0.3c-0.7,0-1.4,0.1-2.2,0.3c-0.8,0.1-1.5,0.3-2.3,0.4c-0.8,0.1-1.6,0.1-2.3,0
			c-0.8-0.1-1.5-0.4-2.2-0.8c-0.7-0.5-1.3-1.2-1.8-2.1c-0.6-1.1-0.9-2.2-0.8-3.3s0.5-2.1,1.2-3.1c0.7-0.9,1.6-1.7,2.8-2.4
			c1.2-0.7,2.5-1.1,3.8-1.1s2.4,0.1,3.4,0.5l-0.9,3.3c-0.9-0.3-1.7-0.5-2.5-0.4c-0.8,0-1.5,0.3-2.3,0.7c-0.9,0.5-1.6,1.1-1.9,1.8
			c-0.3,0.7-0.3,1.4,0.1,2c0.3,0.6,0.8,1,1.3,1.1c0.5,0.2,1.1,0.2,1.8,0.2c0.7,0,1.4-0.1,2.1-0.3c0.8-0.1,1.5-0.3,2.3-0.4
			c0.8-0.1,1.6-0.1,2.4,0.1s1.5,0.4,2.2,0.9c0.7,0.5,1.3,1.2,1.9,2.2c0.9,1.7,1.1,3.4,0.5,5.1C121.1,60.4,119.8,61.8,117.7,63
			 M82.5,64.4l3.4-2.8c0.9-0.7,1.7-1,2.6-0.9c0.9,0.1,1.6,0.5,2.1,1.2c0.6,0.8,0.9,1.6,0.8,2.4c-0.1,0.8-0.6,1.6-1.4,2.3l-3.4,2.8
			L82.5,64.4z M100.8,73.6l3.5-2.9l-11.8-2.4c0.8-0.8,1.4-1.6,1.8-2.4c0.5-1.1,0.6-2.1,0.5-3.2c-0.1-1.1-0.6-2.1-1.4-3.1
			c-0.8-0.9-1.7-1.6-2.7-2c-1-0.4-2.1-0.4-3.3-0.2c-1.1,0.2-2.3,0.8-3.3,1.6l-6.3,5.1l13.8,16.9l2.8-2.3l-5.8-7.2l0.7-0.6
			L100.8,73.6z M83.2,89.3l-2.5-2.1l-7.1,8.5l-4.8-4l6.5-7.7l-2.4-2l-6.5,7.7l-4.4-3.8l7-8.4l-2.5-2.1l-9.3,11.1l16.7,14L83.2,89.3z
			 M50.4,95.5l-1.9,3.3L59,112.2l-16.8-2.7l-2,3.4l23.2,3.4l1.3-2.1L50.4,95.5z M54.6,134.5l-20.1-8.4l1.4-3.3l20.1,8.4L54.6,134.5z
			 M50.4,145.5l-21.2-5.2l-0.8,3.5l14.6,3.6L25.6,155l-0.6,2.4l21.2,5.2l0.8-3.5l-14.6-3.6l17.3-7.6L50.4,145.5z M44.6,181.6
			c-0.1,1.6-0.5,3.1-1.3,4.4c-0.8,1.3-1.9,2.2-3.2,3s-2.8,1-4.4,0.9l-13.5-0.6l0.2-3.6l13.5,0.6c1.1,0,2-0.1,2.8-0.5
			c0.8-0.4,1.4-1,1.9-1.7c0.5-0.8,0.7-1.6,0.8-2.5c0.1-1-0.1-1.8-0.5-2.6s-1-1.4-1.7-1.9c-0.8-0.5-1.7-0.7-2.7-0.8l-13.5-0.6
			l0.2-3.6l13.5,0.6c1.6,0.1,3.1,0.5,4.3,1.3c1.2,0.8,2.2,1.9,2.9,3.2C44.4,178.4,44.7,179.9,44.6,181.6"/>
	</g>
	<path class="st1" d="M647.8,83.3c0-4.8,3.9-8.7,8.7-8.7c4.8,0,8.7,3.9,8.7,8.7s-3.9,8.7-8.7,8.7C651.7,92,647.8,88.1,647.8,83.3z
		 M459.6,85v53.9c0,26.5,14.9,41.1,41.3,41.1c26.8,0,41.8-14.5,41.8-41.7V85c0-5.5,2.7-10.7,7.2-13.8l3.8-2.7h-31.8l4.4,2.7
		c4.9,3.1,7.9,8.4,7.9,14.2v49.8c0,11.5,0,36.6-29.4,36.6c-26.9,0-30.3-20.1-30.3-36.6V84.9c0-5.5,2.7-10.6,7.1-13.7l3.8-2.6h-36.6
		l3.8,2.7C456.9,74.4,459.6,79.5,459.6,85z M650.1,124.3v38.5c0,4.9-2.2,9.6-5.9,12.8l-2.6,2.2h30.7l-2.8-2.2
		c-4.1-3.2-6.6-8.1-6.6-13.3v-61.8l-21.4,8.4l3.4,3.3C648.2,115.4,650.1,119.8,650.1,124.3z M914.9,173.2c-7.9,0-17-8.3-19.8-14.8
		l-9.4,11c4.7,6,18.1,10.6,27.1,10.6c18.1,0,30.7-8.9,30.7-23.2c0-11.9-6.8-17.1-18.1-21.6l-7.8-3.2c-9.2-3.7-15.8-7.5-15.8-14.6
		c0-7.1,5.3-10.5,12.7-10.4c12.4,0.1,18.6,13,18.6,13c2.7-5.1,3.9-7.4,7-13.2c-5.7-3-14.5-6.7-23.8-6.7c-16.6,0-27.4,8.2-27.4,21.5
		c0,13.2,10.1,18.1,19.8,22l8.1,3.3c7.5,3.1,12.9,6.1,12.9,13.5C929.8,169.2,923.9,173.2,914.9,173.2z M686.3,121.5l21.6,56.3
		c0.1,0,10,0,10.1,0l22.5-56.4c1.5-3.7,3.5-7.2,6-10.4c2.5-3.1,5.4-5.9,8.7-8.2h-24.6l0.1,0.1c3.3,4.4,4.1,10.2,2.2,15.4l-14.4,38
		c-0.9,2.4-1.7,4.7-2.4,7.1c-0.7-2.3-1.4-4.7-2.3-7.1l-14.7-38c-0.7-1.9-1.1-3.9-1.1-5.8c0-3.4,1.1-6.8,3.2-9.7h-29.6
		C678.2,107.4,683.4,113.9,686.3,121.5z M965.2,92c4.8,0,8.7-3.9,8.7-8.7s-3.9-8.7-8.7-8.7c-4.8,0-8.7,3.9-8.7,8.7
		S960.4,92,965.2,92z M751.6,128.8c4.6-16.3,20.4-28.1,37.1-28.1s31.3,11.8,35.9,28.1c0.7,2.3,1.1,4.8,1.4,7.2h-58.7
		c0,0.1,0,0.2,0,0.3l0,0.3c0,0.3,0,0.5-0.1,0.8c0,0.3,0,0.6,0,0.9c0,0.3,0,0.5,0,0.8s0,0.5,0,0.8c0,0.3,0,0.5,0,0.8
		c0.7,16.2,10.7,29.2,24.1,30.3c0.6,0,1.2,0.1,1.8,0.1c11.3,0,21-8.6,24.8-20.7h7.1c-4.2,17-18.6,29.5-35.7,29.5
		c-20.4,0-39.2-17.8-39.2-39.7c0-1.5,0.1-2.9,0.2-4.3C750.4,133.5,750.9,131.1,751.6,128.8z M768.3,128.8h40.2
		c-2.9-11.9-9.1-20.7-18.5-21.5c-0.5,0-1.1-0.1-1.6-0.1C778.3,107.2,771.5,116.2,768.3,128.8z M832.2,175.6l-2.6,2.2h31.6l-3.2-2.2
		c-4.5-3.1-7.2-8.3-7.2-13.8v-36.4c13.5-12.8,29.8-8.3,29.8-8.3V99.9c-22.3,0-30.7,17.7-30.7,17.7l-1.5-17.1l-18.2,8.4l3.5,3.9
		c2.8,3.1,4.3,7.1,4.3,11.2v38.8C838.1,167.7,835.9,172.4,832.2,175.6z M759.1,290.6l-15.9-22.9l15.8-19.5
		c4.1-5.1,8.8-9.7,13.9-13.7l2-1.6l-27.1,0c4.7,4,5.5,10.9,1.8,15.8c-3.5,4.7-7,9.4-10.6,14.1l-9.9-14.6c-3.2-4.8-2.5-11.2,1.7-15.1
		l0.3-0.3h-33.5l0.5,0.4c6.3,4.4,11.7,9.9,16,16.2l16.1,23.3l-15.7,20c-4.2,5.4-9.1,10.2-14.5,14.4l-0.9,0.7h27l-0.1-0.1
		c-5.1-3.9-6.1-11.1-2.3-16.2c3.5-4.7,7-9.5,10.5-14.2l10.8,15.6c3.2,4.6,2.7,10.8-1.3,14.8l-0.1,0.1h33.4l-0.1-0.1
		C770,303.3,763.9,297.4,759.1,290.6z M971.6,162.3v-61.8l-21.4,8.4l3.4,3.3c3.3,3.2,5.1,7.5,5.1,12.1v38.5c0,4.9-2.2,9.6-5.9,12.8
		l-2.6,2.2H981l-2.8-2.2C974,172.4,971.6,167.5,971.6,162.3z M918.1,268.4c0,0.3,0,0.5,0,0.8c0,0.3,0,0.5,0,0.8c0,0.3,0,0.5,0,0.8
		c0.7,16.2,10.7,29.2,24.1,30.3c0.6,0,1.2,0.1,1.8,0.1c11.3,0,21-8.6,24.8-20.7h7.1c-4.2,17-18.6,29.5-35.7,29.5
		c-20.4,0-39.2-17.8-39.2-39.7c0-1.5,0.1-2.9,0.2-4.3c0.2-2.5,0.7-4.9,1.4-7.2c4.6-16.3,20.4-28.1,37.1-28.1s31.3,11.8,35.9,28.1
		c0.7,2.3,1.1,4.8,1.4,7.2h-58.7c0,0.1,0,0.2,0,0.3l0,0.3c0,0.3,0,0.5,0,0.8C918.1,267.9,918.1,268.1,918.1,268.4z M919.3,258.9
		h40.2c-3-11.9-9.1-20.7-18.6-21.5c-0.5,0-1-0.1-1.6-0.1C929.3,237.3,922.4,246.3,919.3,258.9z M1084.6,102.7L1084.6,102.7
		c4.8,4.4,6.5,11.2,4.4,17.3c-4.2,12-14.9,42.6-15.9,46.1c-0.9-3.4-16.2-45.4-16.2-45.4c-2.4-6.5-0.4-13.7,5-18.1l-28.5-0.1l0,0h-23
		V75.8l-13.1,11.5v15.3h-12.7v7.9h12.7v52.1c0,8.1,4.1,16.5,17.9,16.5c6.3,0,13.3-2.3,19.2-6.9l-1.3-3.7
		c-16.4,3.8-22.6,1.1-22.6-9.9v-48h28.4l25.3,67.2h4.8c0,0-10.1,22.2-26.3,22.2l6.2,11c14.9-4.3,24.7-26.5,33.3-49.4l17.2-46
		c1.4-3.7,3.6-7,6.5-9.6l3.5-3.2L1084.6,102.7L1084.6,102.7z M877.6,289v-47.9h19.2V233h-19.2v-26.8l-13.1,11.5V233h-12.7v8.1h12.7
		v52c0,8.1,4.1,16.5,17.9,16.5c6.3,0,13.3-2.3,19.2-6.9l-1.3-3.7C883.8,302.8,877.6,300,877.6,289z M523.6,259.7
		c0,26.1-20.9,49.6-47.6,49.6c-18.2,0-27.9-9.5-27.9-29c0-26.1,20.9-49.6,47.6-49.6C514,230.7,523.6,240.2,523.6,259.7z
		 M508.6,252.2c0-10-3.1-15.6-12.9-15.5c-18.8,0.1-32.4,27.2-32.4,51.2c0,10,3.1,15.6,12.9,15.5
		C494.9,303.2,508.6,276.1,508.6,252.2z M1002.9,247.4l-1.5-17.1l-18.2,8.4l3.5,3.9c2.8,3.1,4.3,7.1,4.3,11.2v38.8
		c0,4.9-2.2,9.6-5.9,12.8l-2.6,2.2h31.6l-3.2-2.2c-4.5-3.1-7.2-8.3-7.2-13.8v-36.4c13.5-12.8,29.8-8.3,29.8-8.3v-17.3
		C1011.3,229.7,1002.9,247.4,1002.9,247.4z M543.9,223.7c-0.6,3-1.1,6-1.7,9.1h-14.3v7.3l-0.1,0.3h13l-12.1,63.9
		c-2.2,11.7-4.9,21.8-18,36.6l2.7,2.3c16.1-9.5,24.7-19.8,27.5-34.7l13.1-68l22.6-0.2v-7.5h-21.1c4.2-21.6,5.2-38.8,16.8-38.8
		c3.8,0,10.7,2.2,16,6l5.2-9.6c-2.4-2.5-9.3-4.3-13.7-4.3C561.9,186.1,548.1,201.4,543.9,223.7z M605.5,175.6l-2.6,2.2h30.3
		l-2.7-2.2c-3.9-3.2-6.2-8-6.2-13v-37c0-14.8-5.3-25.1-22.6-25.1c-9,0-17.8,4-24,11.6c-0.6-4-1.5-11.6-1.5-11.6l-19.6,8.4l3.7,3.7
		c3.1,3.1,4.9,7.4,4.9,11.8v38.3c0,4.9-2.2,9.6-5.9,12.8l-2.6,2.2h30.7l-2.8-2.1c-4.2-3.2-6.6-8.1-6.6-13.4v-40.1
		c2.1-4.2,9.4-11.3,18-11.3c12.3,0,15.6,6.1,15.6,17.1v34.6C611.6,167.7,609.3,172.4,605.5,175.6z M790.9,268.4c0,0.3,0,0.5,0,0.8
		c0,0.3,0,0.5,0,0.8c0,0.3,0,0.5,0,0.8c0.7,16.2,10.7,29.2,24.1,30.3c0.6,0,1.2,0.1,1.8,0.1c11.3,0,21-8.6,24.8-20.7h7.1
		c-4.2,17-18.6,29.5-35.7,29.5c-20.4,0-39.2-17.8-39.2-39.7c0-1.5,0.1-2.9,0.2-4.3c0.2-2.5,0.7-4.9,1.4-7.2
		c4.6-16.3,20.4-28.1,37.1-28.1s31.3,11.8,35.9,28.1c0.7,2.3,1.1,4.8,1.4,7.2H791c0,0.1,0,0.2,0,0.3l0,0.3c0,0.3,0,0.5-0.1,0.8
		C790.9,267.9,790.9,268.1,790.9,268.4z M792.1,258.9h40.2c-2.9-11.9-9.1-20.7-18.5-21.5c-0.5,0-1.1-0.1-1.6-0.1
		C802.1,237.3,795.2,246.3,792.1,258.9z M654.9,300.9c-4.2,0-9.7,0-16.7,0l0.2-48.6h13.8c5.1,0,10.1,0.6,15.1,1.7l14.2,3.2v-15.4
		l-15,3.1c-4.6,1-9.2,1.4-13.9,1.4h-14.4v-41.3c7.9,0,14,0,18.5,0c6.1,0,12.1,1.4,17.6,4.1l16.8,8.2l-1.7-18.7h-77l3.8,2.7
		c4.5,3.1,7.2,8.3,7.2,13.8l0,76.4c0,5.5-2.7,10.6-7.2,13.7l-3.8,2.7h79.5l1.3-19.5l-17.1,7.9C669.3,299.3,662.2,300.9,654.9,300.9z
		"/>
</g>
</svg>
